<svg width="40" height="48" viewBox="0 0 40 48" fill="none" xmlns="http://www.w3.org/2000/svg">
<path d="M15.7331 20.4082C17.0665 20.4082 18.1333 21.4286 18.1037 22.6757C18.1037 23.9229 17.0665 24.9433 15.7331 24.9433C14.3998 24.9433 13.3333 23.9229 13.3333 22.6757C13.3333 21.4286 14.3998 20.4082 15.7331 20.4082ZM24.2665 20.4082C25.5998 20.4082 26.6667 21.4286 26.6667 22.6757C26.6667 23.9229 25.5998 24.9433 24.2665 24.9433C22.9628 24.9433 21.896 23.9229 21.896 22.6757C21.896 21.4286 22.9332 20.4082 24.2665 20.4082ZM35.3183 0C37.8961 0 40 2.19047 40 4.90491V47.619L35.0814 43.0951L32.3257 40.4284L29.3924 37.5939L30.6073 42H4.68135C2.10357 42 0 39.8095 0 37.0951V4.90491C0 2.19047 2.10357 0 4.68135 0H35.3183ZM26.4887 31.0951C31.5554 30.9297 33.4813 27.476 33.4813 27.476C33.4813 19.8095 30.1924 13.5943 30.1924 13.5943C26.9035 11.0249 23.7627 11.0954 23.7627 11.0954L23.4368 11.476C27.3479 12.7141 29.1555 14.5013 29.1555 14.5013C27.0221 13.281 24.6815 12.5043 22.2519 12.2153C20.7408 12.0387 19.1703 12.0538 17.6591 12.2609C17.511 12.2609 17.3924 12.2857 17.2443 12.3084C16.4443 12.381 14.5184 12.6893 12.0591 13.8095C11.2295 14.2131 10.7259 14.5013 10.7259 14.5013C10.7259 14.5013 12.6219 12.6189 16.7404 11.3811L16.5035 11.0954C16.5035 11.0954 13.3627 11.0249 10.0738 13.5964C10.0738 13.5964 6.78494 19.8095 6.78494 27.476C6.78494 27.476 8.71079 30.9273 13.7478 31.0951C13.7478 31.0951 14.6071 30.0248 15.2886 29.1202C12.3849 28.2132 11.2887 26.3084 11.2887 26.3084C11.2887 26.3084 11.5257 26.4762 11.9405 26.7144C11.9405 26.7371 11.9702 26.7619 12.0294 26.7846C12.0887 26.8345 12.1482 26.8572 12.2371 26.9049C12.8 27.2381 13.3628 27.499 13.8961 27.7143C14.8443 28.0952 15.9406 28.4762 17.2443 28.7392C19.1998 29.1302 21.2147 29.1377 23.1702 28.7619C24.3258 28.5542 25.422 28.211 26.4887 27.7391C27.2887 27.4286 28.1776 26.9751 29.1258 26.3335C29.1258 26.3335 27.9702 28.2857 24.9776 29.168C25.6591 30.0726 26.4887 31.0951 26.4887 31.0951Z" fill="white"/>
</svg>
