<svg width="40" height="40" viewBox="0 0 40 40" fill="none" xmlns="http://www.w3.org/2000/svg">
<path fill-rule="evenodd" clip-rule="evenodd" d="M20 0C31.04 0 40 8.96 40 20C40 31.04 31.04 40 20 40C8.96 40 0 31.04 0 20C0 8.96 8.96 0 20 0ZM30.0133 12.0267L10.6 11.9733L20.3067 19.68L30.0133 12.0267ZM18.0133 21.8267L9.53333 15.16V27.8267H30.5067V15.4267L22.64 21.8533C19.9733 24.0267 20.7733 23.9867 18.0133 21.8267ZM9.64 9.54667H30.56C32.2533 9.54667 33.6267 10.9333 33.6267 12.6133V27.28C33.6267 28.9733 32.24 30.3467 30.56 30.3467H9.64C7.94667 30.3467 6.57333 28.96 6.57333 27.28V12.6133C6.57333 10.92 7.96 9.54667 9.64 9.54667Z" fill="white"/>
</svg>
