<svg width="371" height="366" viewBox="0 0 371 366" fill="none" xmlns="http://www.w3.org/2000/svg">
<g filter="url(#filter0_d_67_194)">
<path d="M18.793 43.3789C18.793 38.9606 22.3747 35.3789 26.793 35.3789H341C345.418 35.3789 349 38.9606 349 43.3789V326C349 334.836 341.836 342 333 342H34.793C25.9564 342 18.793 334.836 18.793 326V43.3789Z" fill="#FAFBFC"/>
</g>
<g filter="url(#filter1_d_67_194)">
<path d="M7 16C7 7.16346 14.1634 0 23 0H344.793C353.63 0 360.793 7.16344 360.793 16V133.517C360.793 137.936 357.211 141.517 352.793 141.517H15C10.5817 141.517 7 137.936 7 133.517V16Z" fill="#DCE0E8"/>
</g>
<g filter="url(#filter2_d_67_194)">
<g filter="url(#filter3_d_67_194)">
<path d="M179.607 131.256L207.017 123.173L261.159 217.069C263.657 221.401 259.863 226.649 254.967 225.636L226.252 219.694L202.788 241.488C199.331 244.699 193.69 242.651 193.098 237.97L179.607 131.256Z" fill="#FAFBFC"/>
</g>
<g style="mix-blend-mode:multiply" opacity="0.8">
<path d="M179.607 131.256L207.017 123.173L261.159 217.069C263.657 221.401 259.863 226.649 254.967 225.636L226.252 219.694L202.788 241.488C199.331 244.699 193.69 242.651 193.098 237.97L179.607 131.256Z" fill="url(#paint0_radial_67_194)"/>
</g>
<g filter="url(#filter4_d_67_194)">
<path d="M187.607 131.256L160.198 123.173L106.056 217.069C103.558 221.401 107.352 226.649 112.248 225.636L140.963 219.694L164.427 241.488C167.884 244.699 173.525 242.651 174.117 237.97L187.607 131.256Z" fill="#FAFBFC"/>
</g>
<g style="mix-blend-mode:multiply" opacity="0.8">
<path d="M187.607 131.256L160.198 123.173L106.056 217.069C103.558 221.401 107.352 226.649 112.248 225.636L140.963 219.694L164.427 241.488C167.884 244.699 173.525 242.651 174.117 237.97L187.607 131.256Z" fill="url(#paint1_radial_67_194)"/>
</g>
<g filter="url(#filter5_d_67_194)">
<path d="M157.809 99.1C147.598 90.708 135.302 80.6026 103.222 78.4814C95.5933 77.977 88.7431 82.99 87.1937 90.477C83.7354 107.188 81.3625 132.463 86.9299 156.764C88.5995 164.051 95.4123 168.84 102.873 168.354C135.531 166.227 149.25 155.783 160.037 147.571C167.523 141.872 173.596 137.248 183.607 137.228C193.619 137.248 199.692 141.872 207.178 147.571C217.964 155.783 231.684 166.227 264.342 168.354C271.803 168.84 278.615 164.051 280.285 156.764C285.852 132.463 283.479 107.188 280.021 90.4769C278.472 82.99 271.622 77.977 263.993 78.4814C231.913 80.6026 219.617 90.708 209.406 99.1C201.976 105.207 195.649 110.406 183.607 110.962C171.566 110.406 165.239 105.207 157.809 99.1Z" fill="#FAFBFC"/>
</g>
<g style="mix-blend-mode:multiply" opacity="0.8">
<path d="M157.809 99.1C147.598 90.708 135.302 80.6026 103.222 78.4814C95.5933 77.977 88.7431 82.99 87.1937 90.477C83.7354 107.188 81.3625 132.463 86.9299 156.764C88.5995 164.051 95.4123 168.84 102.873 168.354C135.531 166.227 149.25 155.783 160.037 147.571C167.523 141.872 173.596 137.248 183.607 137.228C193.619 137.248 199.692 141.872 207.178 147.571C217.964 155.783 231.684 166.227 264.342 168.354C271.803 168.84 278.615 164.051 280.285 156.764C285.852 132.463 283.479 107.188 280.021 90.4769C278.472 82.99 271.622 77.977 263.993 78.4814C231.913 80.6026 219.617 90.708 209.406 99.1C201.976 105.207 195.649 110.406 183.607 110.962C171.566 110.406 165.239 105.207 157.809 99.1Z" fill="url(#paint2_radial_67_194)"/>
</g>
<g filter="url(#filter6_dd_67_194)">
<path d="M170.665 141.248C169.386 139.905 169.13 108.216 170.665 107.098C172.199 105.755 195.37 105.979 196.648 107.098C197.927 108.216 197.927 140.129 196.648 141.248C195.37 142.367 171.943 142.59 170.665 141.248Z" fill="#FAFBFC"/>
</g>
<g style="mix-blend-mode:multiply" opacity="0.8">
<path d="M170.665 141.248C169.386 139.905 169.13 108.216 170.665 107.098C172.199 105.755 195.37 105.979 196.648 107.098C197.927 108.216 197.927 140.129 196.648 141.248C195.37 142.367 171.943 142.59 170.665 141.248Z" fill="url(#paint3_radial_67_194)"/>
</g>
</g>
<defs>
<filter id="filter0_d_67_194" x="0.792969" y="19.3789" width="370.207" height="346.621" filterUnits="userSpaceOnUse" color-interpolation-filters="sRGB">
<feFlood flood-opacity="0" result="BackgroundImageFix"/>
<feColorMatrix in="SourceAlpha" type="matrix" values="0 0 0 0 0 0 0 0 0 0 0 0 0 0 0 0 0 0 127 0" result="hardAlpha"/>
<feOffset dx="2" dy="4"/>
<feGaussianBlur stdDeviation="10"/>
<feComposite in2="hardAlpha" operator="out"/>
<feColorMatrix type="matrix" values="0 0 0 0 0 0 0 0 0 0 0 0 0 0 0 0 0 0 0.08 0"/>
<feBlend mode="normal" in2="BackgroundImageFix" result="effect1_dropShadow_67_194"/>
<feBlend mode="normal" in="SourceGraphic" in2="effect1_dropShadow_67_194" result="shape"/>
</filter>
<filter id="filter1_d_67_194" x="5" y="0" width="357.793" height="146.518" filterUnits="userSpaceOnUse" color-interpolation-filters="sRGB">
<feFlood flood-opacity="0" result="BackgroundImageFix"/>
<feColorMatrix in="SourceAlpha" type="matrix" values="0 0 0 0 0 0 0 0 0 0 0 0 0 0 0 0 0 0 127 0" result="hardAlpha"/>
<feOffset dy="3"/>
<feGaussianBlur stdDeviation="1"/>
<feComposite in2="hardAlpha" operator="out"/>
<feColorMatrix type="matrix" values="0 0 0 0 0 0 0 0 0 0 0 0 0 0 0 0 0 0 0.32 0"/>
<feBlend mode="normal" in2="BackgroundImageFix" result="effect1_dropShadow_67_194"/>
<feBlend mode="normal" in="SourceGraphic" in2="effect1_dropShadow_67_194" result="shape"/>
</filter>
<filter id="filter2_d_67_194" x="50.6074" y="34.1729" width="268.58" height="252.069" filterUnits="userSpaceOnUse" color-interpolation-filters="sRGB">
<feFlood flood-opacity="0" result="BackgroundImageFix"/>
<feColorMatrix in="SourceAlpha" type="matrix" values="0 0 0 0 0 0 0 0 0 0 0 0 0 0 0 0 0 0 127 0" result="hardAlpha"/>
<feOffset dx="1" dy="1"/>
<feGaussianBlur stdDeviation="7"/>
<feComposite in2="hardAlpha" operator="out"/>
<feColorMatrix type="matrix" values="0 0 0 0 0 0 0 0 0 0 0 0 0 0 0 0 0 0 0.16 0"/>
<feBlend mode="normal" in2="BackgroundImageFix" result="effect1_dropShadow_67_194"/>
<feBlend mode="normal" in="SourceGraphic" in2="effect1_dropShadow_67_194" result="shape"/>
</filter>
<filter id="filter3_d_67_194" x="179.607" y="123.173" width="84.2728" height="123.732" filterUnits="userSpaceOnUse" color-interpolation-filters="sRGB">
<feFlood flood-opacity="0" result="BackgroundImageFix"/>
<feColorMatrix in="SourceAlpha" type="matrix" values="0 0 0 0 0 0 0 0 0 0 0 0 0 0 0 0 0 0 127 0" result="hardAlpha"/>
<feOffset dx="1.93103" dy="3.86207"/>
<feComposite in2="hardAlpha" operator="out"/>
<feColorMatrix type="matrix" values="0 0 0 0 0 0 0 0 0 0 0 0 0 0 0 0 0 0 0.16 0"/>
<feBlend mode="multiply" in2="BackgroundImageFix" result="effect1_dropShadow_67_194"/>
<feBlend mode="normal" in="SourceGraphic" in2="effect1_dropShadow_67_194" result="shape"/>
</filter>
<filter id="filter4_d_67_194" x="105.266" y="123.173" width="84.2728" height="123.732" filterUnits="userSpaceOnUse" color-interpolation-filters="sRGB">
<feFlood flood-opacity="0" result="BackgroundImageFix"/>
<feColorMatrix in="SourceAlpha" type="matrix" values="0 0 0 0 0 0 0 0 0 0 0 0 0 0 0 0 0 0 127 0" result="hardAlpha"/>
<feOffset dx="1.93103" dy="3.86207"/>
<feComposite in2="hardAlpha" operator="out"/>
<feColorMatrix type="matrix" values="0 0 0 0 0 0 0 0 0 0 0 0 0 0 0 0 0 0 0.16 0"/>
<feBlend mode="multiply" in2="BackgroundImageFix" result="effect1_dropShadow_67_194"/>
<feBlend mode="normal" in="SourceGraphic" in2="effect1_dropShadow_67_194" result="shape"/>
</filter>
<filter id="filter5_d_67_194" x="83.6074" y="78.4463" width="201.961" height="93.864" filterUnits="userSpaceOnUse" color-interpolation-filters="sRGB">
<feFlood flood-opacity="0" result="BackgroundImageFix"/>
<feColorMatrix in="SourceAlpha" type="matrix" values="0 0 0 0 0 0 0 0 0 0 0 0 0 0 0 0 0 0 127 0" result="hardAlpha"/>
<feOffset dx="1.96078" dy="3.92157"/>
<feComposite in2="hardAlpha" operator="out"/>
<feColorMatrix type="matrix" values="0 0 0 0 0 0 0 0 0 0 0 0 0 0 0 0 0 0 0.16 0"/>
<feBlend mode="multiply" in2="BackgroundImageFix" result="effect1_dropShadow_67_194"/>
<feBlend mode="normal" in="SourceGraphic" in2="effect1_dropShadow_67_194" result="shape"/>
</filter>
<filter id="filter6_dd_67_194" x="168.607" y="106.173" width="32" height="39" filterUnits="userSpaceOnUse" color-interpolation-filters="sRGB">
<feFlood flood-opacity="0" result="BackgroundImageFix"/>
<feColorMatrix in="SourceAlpha" type="matrix" values="0 0 0 0 0 0 0 0 0 0 0 0 0 0 0 0 0 0 127 0" result="hardAlpha"/>
<feOffset dx="3" dy="3"/>
<feComposite in2="hardAlpha" operator="out"/>
<feColorMatrix type="matrix" values="0 0 0 0 0 0 0 0 0 0 0 0 0 0 0 0 0 0 0.16 0"/>
<feBlend mode="multiply" in2="BackgroundImageFix" result="effect1_dropShadow_67_194"/>
<feColorMatrix in="SourceAlpha" type="matrix" values="0 0 0 0 0 0 0 0 0 0 0 0 0 0 0 0 0 0 127 0" result="hardAlpha"/>
<feOffset dx="-1"/>
<feComposite in2="hardAlpha" operator="out"/>
<feColorMatrix type="matrix" values="0 0 0 0 0 0 0 0 0 0 0 0 0 0 0 0 0 0 0.2 0"/>
<feBlend mode="multiply" in2="effect1_dropShadow_67_194" result="effect2_dropShadow_67_194"/>
<feBlend mode="normal" in="SourceGraphic" in2="effect2_dropShadow_67_194" result="shape"/>
</filter>
<radialGradient id="paint0_radial_67_194" cx="0" cy="0" r="1" gradientUnits="userSpaceOnUse" gradientTransform="translate(241.64 208.758) rotate(-118.859) scale(90.6634 113.205)">
<stop offset="0.395833" stop-opacity="0"/>
<stop offset="1" stop-opacity="0.16"/>
</radialGradient>
<radialGradient id="paint1_radial_67_194" cx="0" cy="0" r="1" gradientUnits="userSpaceOnUse" gradientTransform="translate(124.613 217.792) rotate(-63.1751) scale(99.1021 96.9189)">
<stop offset="0.395833" stop-opacity="0"/>
<stop offset="1" stop-opacity="0.16"/>
</radialGradient>
<radialGradient id="paint2_radial_67_194" cx="0" cy="0" r="1" gradientUnits="userSpaceOnUse" gradientTransform="translate(183.607 123.177) scale(100 45.098)">
<stop stop-opacity="0.16"/>
<stop offset="0.838542" stop-opacity="0"/>
</radialGradient>
<radialGradient id="paint3_radial_67_194" cx="0" cy="0" r="1" gradientUnits="userSpaceOnUse" gradientTransform="translate(183.631 109.508) rotate(90.0408) scale(32.6017 24.2788)">
<stop offset="0.395833" stop-opacity="0"/>
<stop offset="1" stop-opacity="0.16"/>
</radialGradient>
</defs>
</svg>
